- 
http://www.Speed.Cd 
       
http://www.Speed.Cd      fast  and The Hottest Private Tracker on the net

(((--Submit for invite!!--)))

Please Seed back to make the speed Faster!!!

------------------nfo--------------------------
-








































          
          
              
              
                    
                    
                    
                    

Where.Angels.Go.Trouble.Follows.1968.DVDRip.x264.AC3-SiC

Poster:
[img]http://img14.imageshack.us/img14/3881/posterua.jpg[/img]

IMDB Link: 
http://www.imdb.com/title/tt0063800/

Description:
An old-line Mother Superior is challenged by a modern young nun when they take the girls of St. Francis Academy on a bus trip across the U.S.A. 

MediaInfo:
General
Complete name                    : Where.Angels.Go.Trouble.Follows.1968.DVDRip.x264.AC3-SiC.mkv
Format                           : Matroska
Format version                   : Version 2
File size                        : 1.80 GiB
Duration                         : 1h 33mn
Overall bit rate                 : 2 750 Kbps
Encoded date                     : UTC 2011-08-24 22:53:42
Writing application              : mkvmerge v4.9.1 ('Ich will') built on Jul 11 2011 23:53:15
Writing library                  : libebml v1.2.1 + libmatroska v1.1.1

Video
ID                               : 1
Format                           : AVC
Format/Info                      : Advanced Video Codec
Format profile                   : High@L3.0
Format settings, CABAC           : Yes
Format settings, ReFrames        : 4 frames
Muxing mode                      : Header stripping
Codec ID                         : V_MPEG4/ISO/AVC
Duration                         : 1h 33mn
Bit rate                         : 2 503 Kbps
Width                            : 720 pixels
Height                           : 480 pixels
Display aspect ratio             : 4:3
Frame rate                       : 23.976 fps
Standard                         : NTSC
Color space                      : YUV
Chroma subsampling               : 4:2:0
Bit depth                        : 8 bits
Scan type                        : Progressive
Bits/(Pixel*Frame)               : 0.302
Stream size                      : 1.64 GiB (91%)
Writing library                  : x264 core 115 r1995 c1e60b9
Encoding settings                : cabac=1 / ref=3 / deblock=1:0:0 / analyse=0x3:0x133 / me=umh / subme=7 / psy=1 / psy_rd=1.00:0.00 / mixed_ref=1 / me_range=16 / chroma_me=1 / trellis=1 / 8x8dct=1 / cqm=0 / deadzone=21,11 / fast_pskip=1 / chroma_qp_offset=-2 / threads=9 / sliced_threads=0 / nr=0 / decimate=1 / interlaced=0 / bluray_compat=0 / constrained_intra=0 / bframes=3 / b_pyramid=2 / b_adapt=1 / b_bias=0 / direct=1 / weightb=1 / open_gop=1 / weightp=2 / keyint=250 / keyint_min=23 / scenecut=40 / intra_refresh=0 / rc_lookahead=40 / rc=crf / mbtree=1 / crf=18.0 / qcomp=0.60 / qpmin=0 / qpmax=69 / qpstep=4 / ip_ratio=1.40 / aq=1:1.00
Language                         : English

Audio
ID                               : 2
Format                           : AC-3
Format/Info                      : Audio Coding 3
Mode extension                   : CM (complete main)
Muxing mode                      : Header stripping
Codec ID                         : A_AC3
Duration                         : 1h 33mn
Bit rate mode                    : Constant
Bit rate                         : 192 Kbps
Channel(s)                       : 2 channels
Channel positions                : Front: L R
Sampling rate                    : 48.0 KHz
Bit depth                        : 16 bits
Compression mode                 : Lossy
Stream size                      : 129 MiB (7%)



Screenshots:
[img]http://img713.imageshack.us/img713/8218/vlcsnap2011082423h57m03.png[/img]
[img]http://img846.imageshack.us/img846/4093/vlcsnap2011082423h57m11.png[/img]
[img]http://img64.imageshack.us/img64/1153/vlcsnap2011082423h57m28.png[/img]
[img]http://img204.imageshack.us/img204/2285/vlcsnap2011082423h57m37.png[/img]
[img]http://img89.imageshack.us/img89/4043/vlcsnap2011082423h57m59.png[/img]

Note: N/A

Encoder: Brian

Enjoy!

Respects to CaptainHomey, Cyanide, CM8, Rx, THC, ELEKTRI4KA, 
Killerhz, PA, YeFsTe, BoxSlots, MrRep and everyone in the struggle...